<?xml version="1.0" encoding="UTF-8" standalone="no"?>
<!-- Created with Inkscape (http://www.inkscape.org/) -->
<svg
   xmlns:svg="http://www.w3.org/2000/svg"
   xmlns="http://www.w3.org/2000/svg"
   version="1.0"
   width="153.64159"
   height="171.69696"
   id="svg2">
  <defs
     id="defs5" />
  <path
     d="M 76.814683,86.348479 C 48.045882,129.66588 52.582999,171.19696 76.814683,171.19696 C 100.61347,171.19696 105.88493,127.97484 76.814683,86.348479 z"
     id="path2384"
     style="fill:#82e509;fill-opacity:1;fill-rule:evenodd;stroke:#000000;stroke-width:1px;stroke-linecap:butt;stroke-linejoin:round;stroke-opacity:1" />
  <path
     d="M 76.367583,86.139601 C 24.418095,83.839201 -8.820263,109.14983 3.67963,129.90861 C 15.956214,150.29655 55.702996,132.51641 76.367583,86.139601 z"
     id="use3156"
     style="fill:#fbec13;fill-opacity:1;fill-rule:evenodd;stroke:#000000;stroke-width:1px;stroke-linecap:butt;stroke-linejoin:round;stroke-opacity:1" />
  <path
     d="M 77.225973,86.069783 C 99.853183,132.88912 137.90538,150.13575 150.24627,129.28205 C 162.36669,108.80089 127.85458,82.251809 77.225973,86.069783 z"
     id="use3158"
     style="fill:#2184ff;fill-opacity:1;fill-rule:evenodd;stroke:#000000;stroke-width:1px;stroke-linecap:butt;stroke-linejoin:round;stroke-opacity:1" />
  <path
     d="M 77.189573,85.564927 C 129.08794,88.82074 162.78635,64.125941 150.67051,43.140687 C 138.77112,22.53033 98.703933,39.576172 77.189573,85.564927 z"
     id="use3160"
     style="fill:#f952f4;fill-opacity:1;fill-rule:evenodd;stroke:#000000;stroke-width:1px;stroke-linecap:butt;stroke-linejoin:round;stroke-opacity:1" />
  <path
     d="M 76.737193,85.348481 C 105.50599,42.03108 100.96887,0.5 76.737193,0.5 C 52.938403,0.5 47.666943,43.72212 76.737193,85.348481 z"
     id="use3162"
     style="fill:#ed2124;fill-opacity:1;fill-rule:evenodd;stroke:#000000;stroke-width:1px;stroke-linecap:butt;stroke-linejoin:round;stroke-opacity:1" />
  <path
     d="M 76.323553,85.632035 C 53.193982,39.058822 14.958453,22.22254 2.842611,43.207794 C -9.056784,63.818151 25.73894,89.99443 76.323553,85.632035 z"
     id="use3164"
     style="fill:#fc6f18;fill-opacity:1;fill-rule:evenodd;stroke:#000000;stroke-width:1px;stroke-linecap:butt;stroke-linejoin:round;stroke-opacity:1" />
</svg>
